<?xml version="1.0" encoding="UTF-8"?>
<svg width="14px" height="17px" viewBox="0 0 14 17" version="1.1" xmlns="http://www.w3.org/2000/svg" xmlns:xlink="http://www.w3.org/1999/xlink">
    <g fill="#F2F2F2" fill-rule="nonzero">
        <path d="M13.9716514,8.84835264 L-1,8.75 L-1,8 L13.9967564,8.09851756 L10.154827,2.74975562 C10.0941102,2.66503705 10.0637523,2.56125835 10.0637523,2.43841642 C10.0637523,2.31557449 10.0941102,2.2117958 10.154827,2.12707722 C10.2155437,2.04235865 10.2899206,2 10.3779599,2 C10.4659992,2 10.5403761,2.04235865 10.6010929,2.12707722 L14.9089253,8.15053763 C14.9696421,8.23525621 15,8.33691697 15,8.45552297 C15,8.57412897 14.9696421,8.67578974 14.9089253,8.76050831 L10.5373406,14.8729228 C10.5069822,14.9152821 10.4720706,14.9470511 10.4326047,14.9682307 C10.3931388,14.9894103 10.3551914,15 10.3187614,15 C10.2762597,15 10.2352765,14.9894103 10.1958106,14.9682307 C10.1563447,14.9470511 10.1214331,14.9152821 10.0910747,14.8729228 C10.0303579,14.7882042 10,14.6865434 10,14.5679374 C10,14.4493314 10.0303579,14.3476707 10.0910747,14.2629521 L13.9716514,8.84835264 Z" id="arrow" transform="translate(7.000000, 8.500000) rotate(-270.000000) translate(-7.000000, -8.500000) "></path>
    </g>
</svg>