<?xml version="1.0" encoding="UTF-8"?>
<svg width="17px" height="14px" viewBox="0 0 17 14" version="1.1" xmlns="http://www.w3.org/2000/svg" xmlns:xlink="http://www.w3.org/1999/xlink">
    <g fill="#F2F2F2" fill-rule="nonzero">
        <path d="M15.4716514,7.34835264 L0.5,7.25 L0.5,6.5 L15.4967564,6.59851756 L11.654827,1.24975562 C11.5941102,1.16503705 11.5637523,1.06125835 11.5637523,0.938416422 C11.5637523,0.815574492 11.5941102,0.711795797 11.654827,0.627077224 C11.7155437,0.542358651 11.7899206,0.5 11.8779599,0.5 C11.9659992,0.5 12.0403761,0.542358651 12.1010929,0.627077224 L16.4089253,6.65053763 C16.4696421,6.73525621 16.5,6.83691697 16.5,6.95552297 C16.5,7.07412897 16.4696421,7.17578974 16.4089253,7.26050831 L12.0373406,13.3729228 C12.0069822,13.4152821 11.9720706,13.4470511 11.9326047,13.4682307 C11.8931388,13.4894103 11.8551914,13.5 11.8187614,13.5 C11.7762597,13.5 11.7352765,13.4894103 11.6958106,13.4682307 C11.6563447,13.4470511 11.6214331,13.4152821 11.5910747,13.3729228 C11.5303579,13.2882042 11.5,13.1865434 11.5,13.0679374 C11.5,12.9493314 11.5303579,12.8476707 11.5910747,12.7629521 L15.4716514,7.34835264 Z" id="arrow"></path>
    </g>
</svg>