<?xml version="1.0" encoding="UTF-8"?>
<svg width="192px" height="73px" viewBox="0 0 192 73" version="1.1" xmlns="http://www.w3.org/2000/svg" xmlns:xlink="http://www.w3.org/1999/xlink">
    <g transform="translate(-32.000000, 0.000000)" fill="#F2F2F2">
        <g id="Group" transform="translate(32.000000, 0.000000)">
            <path d="M9.81,72.072 C8.742,72.072 7.638,71.664 6.786,70.752 L7.458,69.96 C8.07,70.716 8.994,71.088 9.822,71.088 C10.866,71.088 11.562,70.596 11.562,69.78 C11.562,68.82 10.794,68.568 9.654,68.136 C8.394,67.668 7.11,67.128 7.11,65.652 C7.11,64.38 8.262,63.408 9.714,63.396 C10.662,63.396 11.598,63.744 12.414,64.392 L11.778,65.208 C11.106,64.644 10.35,64.368 9.714,64.368 C8.922,64.368 8.202,64.8 8.202,65.604 C8.19,66.42 8.958,66.708 10.014,67.128 C11.454,67.68 12.654,68.076 12.654,69.672 C12.654,71.244 11.274,72.072 9.81,72.072 Z M16.026,72 L16.026,64.44 L13.47,64.44 L13.47,63.48 L19.638,63.48 L19.638,64.44 L17.07,64.44 L17.07,72 L16.026,72 Z M26.058,63.48 L27.27,63.48 L24.366,68.196 L24.366,72 L23.322,72 L23.322,68.196 L20.43,63.48 L21.63,63.48 L23.838,67.152 L23.862,67.152 L26.058,63.48 Z M28.554,72 L28.554,63.48 L29.598,63.48 L29.598,71.04 L33.822,71.04 L33.822,72 L28.554,72 Z M35.298,72 L35.298,63.48 L40.518,63.48 L40.518,64.44 L36.354,64.44 L36.354,67.284 L39.774,67.284 L39.774,68.244 L36.354,68.244 L36.354,71.04 L40.77,71.04 L40.77,72 L35.298,72 Z M45.834,67.608 L49.35,67.608 L49.35,70.98 C48.558,71.652 47.346,72.06 46.038,72.06 C43.59,72.06 41.778,70.392 41.778,67.752 C41.778,65.232 43.434,63.396 46.002,63.396 C47.154,63.396 48.342,63.792 49.254,64.74 L48.51,65.376 C47.826,64.728 46.986,64.392 45.99,64.392 C44.202,64.392 42.87,65.712 42.87,67.752 C42.87,69.672 44.13,71.088 46.038,71.088 C46.89,71.088 47.67,70.896 48.306,70.44 L48.306,68.568 L45.834,68.568 L45.834,67.608 Z M54.474,72.072 C52.53,72.072 51.186,70.776 51.186,68.532 L51.186,63.48 L52.23,63.48 L52.23,68.46 C52.23,70.032 53.106,71.076 54.474,71.076 C55.806,71.076 56.742,70.104 56.742,68.46 L56.742,63.48 L57.786,63.48 L57.786,68.532 C57.786,70.728 56.502,72.072 54.474,72.072 Z M59.898,72 L59.898,63.48 L60.954,63.48 L60.954,72 L59.898,72 Z M63.174,72 L63.174,63.48 L65.73,63.48 C68.43,63.48 70.146,65.232 70.146,67.752 C70.146,70.26 68.478,72 65.766,72 L63.174,72 Z M64.218,71.052 L65.694,71.052 C67.746,71.052 69.078,69.672 69.078,67.752 C69.078,65.796 67.734,64.428 65.742,64.428 L64.218,64.428 L64.218,71.052 Z M71.934,72 L71.934,63.48 L77.154,63.48 L77.154,64.44 L72.99,64.44 L72.99,67.284 L76.41,67.284 L76.41,68.244 L72.99,68.244 L72.99,71.04 L77.406,71.04 L77.406,72 L71.934,72 Z M87.702,72 L87.018,71.184 C86.442,71.748 85.686,72.072 84.654,72.072 C83.142,72.072 81.942,71.076 81.942,69.564 C81.942,68.484 82.614,67.56 83.562,67.044 L82.53,65.808 C82.65,64.404 83.658,63.396 85.062,63.396 C86.43,63.396 87.21,64.236 87.546,65.004 L86.706,65.328 C86.454,64.776 85.986,64.296 85.134,64.284 C84.15,64.284 83.646,64.896 83.562,65.652 L87.03,69.792 C87.342,69.252 87.486,68.616 87.486,68.052 L88.434,68.028 C88.434,68.844 88.218,69.804 87.678,70.572 L88.878,72 L87.702,72 Z M82.962,69.516 C82.962,70.452 83.682,71.136 84.75,71.136 C85.47,71.136 86.034,70.896 86.454,70.512 L86.454,70.5 L84.162,67.752 C83.406,68.112 82.962,68.808 82.962,69.516 Z M93.594,72 L93.594,63.48 L96.15,63.48 C98.85,63.48 100.566,65.232 100.566,67.752 C100.566,70.26 98.898,72 96.186,72 L93.594,72 Z M94.638,71.052 L96.114,71.052 C98.166,71.052 99.498,69.672 99.498,67.752 C99.498,65.796 98.154,64.428 96.162,64.428 L94.638,64.428 L94.638,71.052 Z M102.354,72 L102.354,63.48 L107.574,63.48 L107.574,64.44 L103.41,64.44 L103.41,67.284 L106.83,67.284 L106.83,68.244 L103.41,68.244 L103.41,71.04 L107.826,71.04 L107.826,72 L102.354,72 Z M112.002,72.072 C110.934,72.072 109.83,71.664 108.978,70.752 L109.65,69.96 C110.262,70.716 111.186,71.088 112.014,71.088 C113.058,71.088 113.754,70.596 113.754,69.78 C113.754,68.82 112.986,68.568 111.846,68.136 C110.586,67.668 109.302,67.128 109.302,65.652 C109.302,64.38 110.454,63.408 111.906,63.396 C112.854,63.396 113.79,63.744 114.606,64.392 L113.97,65.208 C113.298,64.644 112.542,64.368 111.906,64.368 C111.114,64.368 110.394,64.8 110.394,65.604 C110.382,66.42 111.15,66.708 112.206,67.128 C113.646,67.68 114.846,68.076 114.846,69.672 C114.846,71.244 113.466,72.072 112.002,72.072 Z M116.598,72 L116.598,63.48 L117.654,63.48 L117.654,72 L116.598,72 Z M123.558,67.608 L127.074,67.608 L127.074,70.98 C126.282,71.652 125.07,72.06 123.762,72.06 C121.314,72.06 119.502,70.392 119.502,67.752 C119.502,65.232 121.158,63.396 123.726,63.396 C124.878,63.396 126.066,63.792 126.978,64.74 L126.234,65.376 C125.55,64.728 124.71,64.392 123.714,64.392 C121.926,64.392 120.594,65.712 120.594,67.752 C120.594,69.672 121.854,71.088 123.762,71.088 C124.614,71.088 125.394,70.896 126.03,70.44 L126.03,68.568 L123.558,68.568 L123.558,67.608 Z M134.898,63.48 L135.942,63.48 L135.942,72 L134.874,72 L130.098,65.28 L130.074,65.28 L130.074,72 L129.03,72 L129.03,63.48 L130.062,63.48 L134.874,70.272 L134.898,70.272 L134.898,63.48 Z M143.874,72.072 C142.806,72.072 141.702,71.664 140.85,70.752 L141.522,69.96 C142.134,70.716 143.058,71.088 143.886,71.088 C144.93,71.088 145.626,70.596 145.626,69.78 C145.626,68.82 144.858,68.568 143.718,68.136 C142.458,67.668 141.174,67.128 141.174,65.652 C141.174,64.38 142.326,63.408 143.778,63.396 C144.726,63.396 145.662,63.744 146.478,64.392 L145.842,65.208 C145.17,64.644 144.414,64.368 143.778,64.368 C142.986,64.368 142.266,64.8 142.266,65.604 C142.254,66.42 143.022,66.708 144.078,67.128 C145.518,67.68 146.718,68.076 146.718,69.672 C146.718,71.244 145.338,72.072 143.874,72.072 Z M152.994,63.48 L154.206,63.48 L151.302,68.196 L151.302,72 L150.258,72 L150.258,68.196 L147.366,63.48 L148.566,63.48 L150.774,67.152 L150.798,67.152 L152.994,63.48 Z M157.806,72.072 C156.738,72.072 155.634,71.664 154.782,70.752 L155.454,69.96 C156.066,70.716 156.99,71.088 157.818,71.088 C158.862,71.088 159.558,70.596 159.558,69.78 C159.558,68.82 158.79,68.568 157.65,68.136 C156.39,67.668 155.106,67.128 155.106,65.652 C155.106,64.38 156.258,63.408 157.71,63.396 C158.658,63.396 159.594,63.744 160.41,64.392 L159.774,65.208 C159.102,64.644 158.346,64.368 157.71,64.368 C156.918,64.368 156.198,64.8 156.198,65.604 C156.186,66.42 156.954,66.708 158.01,67.128 C159.45,67.68 160.65,68.076 160.65,69.672 C160.65,71.244 159.27,72.072 157.806,72.072 Z M164.022,72 L164.022,64.44 L161.466,64.44 L161.466,63.48 L167.634,63.48 L167.634,64.44 L165.066,64.44 L165.066,72 L164.022,72 Z M169.098,72 L169.098,63.48 L174.318,63.48 L174.318,64.44 L170.154,64.44 L170.154,67.284 L173.574,67.284 L173.574,68.244 L170.154,68.244 L170.154,71.04 L174.57,71.04 L174.57,72 L169.098,72 Z M183.618,63.48 L184.662,63.48 L184.662,72 L183.618,72 L183.618,65.472 L183.594,65.472 L180.822,70.284 L180.114,70.284 L177.342,65.472 L177.318,65.472 L177.318,72 L176.274,72 L176.274,63.48 L177.33,63.48 L180.462,68.988 L180.486,68.988 L183.618,63.48 Z" id="STYLEGUIDE&amp;DESIGNSYSTEM" fill-rule="nonzero"></path>
            <path d="M29.3435685,18.1400319 L29.3435685,52.8071977 L20.9007975,52.8071977 L8.24830879,33.6783398 L8.24830879,52.8071977 L0,52.8071977 L0,18.1400319 L8.24830879,18.1400319 L21.0470331,38.6721291 L21.0470331,18.1400319 L29.3435685,18.1400319 Z M56.1306592,38.3799691 C56.1306592,33.6537597 52.941479,30.4054631 48.6290852,30.4054631 C44.1393419,30.4054631 41.1259556,33.8311093 41.1259556,38.3799691 C41.1259556,42.8697124 44.2575749,46.3544751 48.6290852,46.3544751 C52.823246,46.3544751 56.1306592,43.047062 56.1306592,38.3799691 M33.3303548,38.3799691 C33.3303548,29.7567372 39.472249,23.4950543 48.6290852,23.4950543 C57.6070162,23.4950543 63.9869321,29.5202712 63.9869321,38.3799691 C63.9869321,47.2396671 57.6070162,53.264884 48.6290852,53.264884 C39.472249,53.264884 33.3303548,47.0047567 33.3303548,38.3799691 Z M82.6201448,52.7930409 L75.3550369,52.7930409 L64.0140013,23.9675196 L72.1658568,23.9675196 L78.9580326,43.3421778 L79.0171491,43.3421778 C79.0171491,43.3421778 82.7974944,32.310726 84.0404968,29.0266483 C84.6612201,27.3853873 85.5604133,25.6523402 88.9129417,25.6523402 C92.2670258,25.6523402 93.2564495,25.6492288 93.2564495,25.6492288 L82.6201448,52.7930409 Z M102.429465,33.4235165 C102.4528,33.4110709 102.473024,33.3955139 102.49636,33.3815127 L102.49636,52.7935076 L94.7583199,52.7935076 L94.7583199,33.1854948 C95.4459383,33.6817623 96.2206757,34.0582411 97.0654195,34.2713717 C97.6208036,34.4160516 98.1917446,34.4876137 98.7642413,34.4876137 C100.067916,34.4876137 101.326475,34.1235804 102.429465,33.4235165 Z M107.581158,38.3799691 C107.581158,29.5202712 113.841285,23.4950543 122.761655,23.4950543 C127.369631,23.4950543 132.094285,25.3245547 134.989438,28.9882226 L129.790297,33.4779659 C128.254823,31.7044706 126.011507,30.4054631 123.055682,30.4054631 C118.449261,30.4054631 115.378314,33.6537597 115.378314,38.3208526 C115.378314,43.047062 118.567494,46.3544751 123.114798,46.3544751 C126.187301,46.3544751 128.491289,44.9372346 129.849413,43.401761 L135.106116,48.0688539 C132.627889,50.9624515 128.195707,53.264884 122.406956,53.264884 C113.841285,53.264884 107.581158,47.2396671 107.581158,38.3799691 Z M145.568182,35.3080886 L158.267342,35.3080886 C157.500383,32.2947023 155.432861,30.2878524 152.066331,30.2878524 C148.934712,30.2878524 146.453374,32.0006754 145.568182,35.3080886 M165.768916,40.8603734 L145.509066,40.8603734 C146.453374,44.2860196 149.171178,46.4142139 152.892406,46.4142139 C155.964909,46.4733304 158.208225,45.1152064 159.802815,43.1643616 L164.824607,47.8314544 C162.34327,50.9630738 158.150664,53.2655062 152.360358,53.2655062 C143.914476,53.2655062 137.53456,47.3585224 137.53456,38.3214749 C137.53456,29.5784543 143.618893,23.4941209 151.828309,23.4941209 C160.275747,23.4941209 165.947821,29.6375708 165.947821,38.0850088 C165.947821,39.030873 165.947821,40.388997 165.768916,40.8603734 Z M171.242327,52.7925742 L171.242327,18.1394096 L178.980367,18.1394096 L178.980367,52.7925742 L171.242327,52.7925742 Z M184.260404,52.7925742 L184.260404,18.1394096 L192,18.1394096 L192,52.7925742 L184.260404,52.7925742 Z M107.336602,27.0373778 C109.407235,13.5323667 100.023267,12.02334 97.8266224,11.4228407 C95.6299773,10.8238972 94.3418597,9.88270009 93.5437868,8.04075411 C92.282116,5.12070967 93.6293502,1.72462177 96.5493946,0.47384088 C98.1999898,-0.241780025 100.004599,-0.118879913 101.488735,0.654301804 L101.491846,0.646523316 C103.382019,1.55660642 104.685693,2.85561394 104.685693,2.85561394 C116.729904,14.6555804 107.336602,27.0373778 107.336602,27.0373778 Z M100.364743,16.0647313 C100.364743,16.0647313 107.497617,21.4194425 102.110236,28.6409909 C102.110236,28.6409909 101.534628,29.432841 100.610543,30.0691213 L100.602765,30.05512 C99.8824768,30.5840572 98.9521696,30.8096334 98.018751,30.5685002 C96.3728229,30.1500176 95.3849549,28.4698641 95.806549,26.823936 C96.0756847,25.7862857 96.8441993,25.0115483 97.7900635,24.6848518 C98.5648009,24.3706009 103.994186,21.8892632 100.364743,16.0647313 Z M91.0055106,22.1697555 C89.7718424,21.6641537 81.1797244,18.5745383 78.881959,28.8561438 C78.881959,28.8561438 76.8408837,15.2717922 90.5434684,13.1622662 C90.5434684,13.1622662 92.0307153,12.9180217 93.7326485,13.2167157 L93.7264257,13.2447182 C95.0861054,13.4391804 96.353999,14.1999166 97.1147351,15.4724772 C98.4681921,17.706459 97.7401256,20.6171692 95.5014767,21.9675148 C94.0811248,22.8215928 92.3931929,22.8355941 91.0055106,22.1697555 Z" id="logo-hvid"></path>
        </g>
    </g>
</svg>